<svg width="1788" height="360" viewBox="0 0 1788 360" fill="none" xmlns="http://www.w3.org/2000/svg">
<path d="M64.269 122.069L311.892 11.0998L256.953 282.971L207.988 153.69L206.711 150.317L203.174 149.616L64.269 122.069Z" stroke="#16A34A" stroke-width="13"/>
<path d="M277.767 55.5996L0 180.077L156.441 209.114L213.39 359.477L277.767 55.5996Z" fill="#16A34A"/>
<path d="M431.12 291.88C417.68 291.88 404.8 290.12 392.48 286.6C380.16 282.92 370.24 278.2 362.72 272.44L375.92 243.16C383.12 248.28 391.6 252.52 401.36 255.88C411.28 259.08 421.28 260.68 431.36 260.68C439.04 260.68 445.2 259.96 449.84 258.52C454.64 256.92 458.16 254.76 460.4 252.04C462.64 249.32 463.76 246.2 463.76 242.68C463.76 238.2 462 234.68 458.48 232.12C454.96 229.4 450.32 227.24 444.56 225.64C438.8 223.88 432.4 222.28 425.36 220.84C418.48 219.24 411.52 217.32 404.48 215.08C397.6 212.84 391.28 209.96 385.52 206.44C379.76 202.92 375.04 198.28 371.36 192.52C367.84 186.76 366.08 179.4 366.08 170.44C366.08 160.84 368.64 152.12 373.76 144.28C379.04 136.28 386.88 129.96 397.28 125.32C407.84 120.52 421.04 118.12 436.88 118.12C447.44 118.12 457.84 119.4 468.08 121.96C478.32 124.36 487.36 128.04 495.2 133L483.2 162.52C475.36 158.04 467.52 154.76 459.68 152.68C451.84 150.44 444.16 149.32 436.64 149.32C429.12 149.32 422.96 150.2 418.16 151.96C413.36 153.72 409.92 156.04 407.84 158.92C405.76 161.64 404.72 164.84 404.72 168.52C404.72 172.84 406.48 176.36 410 179.08C413.52 181.64 418.16 183.72 423.92 185.32C429.68 186.92 436 188.52 442.88 190.12C449.92 191.72 456.88 193.56 463.76 195.64C470.8 197.72 477.2 200.52 482.96 204.04C488.72 207.56 493.36 212.2 496.88 217.96C500.56 223.72 502.4 231 502.4 239.8C502.4 249.24 499.76 257.88 494.48 265.72C489.2 273.56 481.28 279.88 470.72 284.68C460.32 289.48 447.12 291.88 431.12 291.88ZM554.887 262.6L555.847 217L616.087 159.88H660.727L602.887 218.68L583.447 234.52L554.887 262.6ZM523.927 289V110.92H561.367V289H523.927ZM620.167 289L576.487 234.76L600.007 205.72L665.527 289H620.167ZM679.964 289V159.88H717.404V289H679.964ZM698.684 141.88C691.804 141.88 686.204 139.88 681.884 135.88C677.564 131.88 675.404 126.92 675.404 121C675.404 115.08 677.564 110.12 681.884 106.12C686.204 102.12 691.804 100.12 698.684 100.12C705.564 100.12 711.164 102.04 715.484 105.88C719.804 109.56 721.964 114.36 721.964 120.28C721.964 126.52 719.804 131.72 715.484 135.88C711.324 139.88 705.724 141.88 698.684 141.88ZM749.752 289V110.92H787.192V289H749.752ZM819.539 289V110.92H856.979V289H819.539ZM957.536 289V121H1039.62C1060.74 121 1076.58 125 1087.14 133C1097.86 141 1103.22 151.56 1103.22 164.68C1103.22 173.48 1101.06 181.16 1096.74 187.72C1092.42 194.12 1086.5 199.08 1078.98 202.6C1071.46 206.12 1062.82 207.88 1053.06 207.88L1057.62 198.04C1068.18 198.04 1077.54 199.8 1085.7 203.32C1093.86 206.68 1100.18 211.72 1104.66 218.44C1109.3 225.16 1111.62 233.4 1111.62 243.16C1111.62 257.56 1105.94 268.84 1094.58 277C1083.22 285 1066.5 289 1044.42 289H957.536ZM996.176 259.72H1041.54C1051.62 259.72 1059.22 258.12 1064.34 254.92C1069.62 251.56 1072.26 246.28 1072.26 239.08C1072.26 232.04 1069.62 226.84 1064.34 223.48C1059.22 219.96 1051.62 218.2 1041.54 218.2H993.296V189.88H1034.82C1044.26 189.88 1051.46 188.28 1056.42 185.08C1061.54 181.72 1064.1 176.68 1064.1 169.96C1064.1 163.4 1061.54 158.52 1056.42 155.32C1051.46 151.96 1044.26 150.28 1034.82 150.28H996.176V259.72ZM1215.21 289V263.8L1212.81 258.28V213.16C1212.81 205.16 1210.33 198.92 1205.37 194.44C1200.57 189.96 1193.13 187.72 1183.05 187.72C1176.17 187.72 1169.37 188.84 1162.65 191.08C1156.09 193.16 1150.49 196.04 1145.85 199.72L1132.41 173.56C1139.45 168.6 1147.93 164.76 1157.85 162.04C1167.77 159.32 1177.85 157.96 1188.09 157.96C1207.77 157.96 1223.05 162.6 1233.93 171.88C1244.81 181.16 1250.25 195.64 1250.25 215.32V289H1215.21ZM1175.85 290.92C1165.77 290.92 1157.13 289.24 1149.93 285.88C1142.73 282.36 1137.21 277.64 1133.37 271.72C1129.53 265.8 1127.61 259.16 1127.61 251.8C1127.61 244.12 1129.45 237.4 1133.13 231.64C1136.97 225.88 1142.97 221.4 1151.13 218.2C1159.29 214.84 1169.93 213.16 1183.05 213.16H1217.37V235H1187.13C1178.33 235 1172.25 236.44 1168.89 239.32C1165.69 242.2 1164.09 245.8 1164.09 250.12C1164.09 254.92 1165.93 258.76 1169.61 261.64C1173.45 264.36 1178.65 265.72 1185.21 265.72C1191.45 265.72 1197.05 264.28 1202.01 261.4C1206.97 258.36 1210.57 253.96 1212.81 248.2L1218.57 265.48C1215.85 273.8 1210.89 280.12 1203.69 284.44C1196.49 288.76 1187.21 290.92 1175.85 290.92ZM1272.86 289V266.44L1349.18 176.2L1355.66 188.68H1274.54V159.88H1385.9V182.44L1309.58 272.68L1302.86 260.2H1388.06V289H1272.86ZM1488.85 289V263.8L1486.45 258.28V213.16C1486.45 205.16 1483.97 198.92 1479.01 194.44C1474.21 189.96 1466.77 187.72 1456.69 187.72C1449.81 187.72 1443.01 188.84 1436.29 191.08C1429.73 193.16 1424.13 196.04 1419.49 199.72L1406.05 173.56C1413.09 168.6 1421.57 164.76 1431.49 162.04C1441.41 159.32 1451.49 157.96 1461.73 157.96C1481.41 157.96 1496.69 162.6 1507.57 171.88C1518.45 181.16 1523.89 195.64 1523.89 215.32V289H1488.85ZM1449.49 290.92C1439.41 290.92 1430.77 289.24 1423.57 285.88C1416.37 282.36 1410.85 277.64 1407.01 271.72C1403.17 265.8 1401.25 259.16 1401.25 251.8C1401.25 244.12 1403.09 237.4 1406.77 231.64C1410.61 225.88 1416.61 221.4 1424.77 218.2C1432.93 214.84 1443.57 213.16 1456.69 213.16H1491.01V235H1460.77C1451.97 235 1445.89 236.44 1442.53 239.32C1439.33 242.2 1437.73 245.8 1437.73 250.12C1437.73 254.92 1439.57 258.76 1443.25 261.64C1447.09 264.36 1452.29 265.72 1458.85 265.72C1465.09 265.72 1470.69 264.28 1475.65 261.4C1480.61 258.36 1484.21 253.96 1486.45 248.2L1492.21 265.48C1489.49 273.8 1484.53 280.12 1477.33 284.44C1470.13 288.76 1460.85 290.92 1449.49 290.92ZM1634.57 289V263.8L1632.17 258.28V213.16C1632.17 205.16 1629.69 198.92 1624.73 194.44C1619.93 189.96 1612.49 187.72 1602.41 187.72C1595.53 187.72 1588.73 188.84 1582.01 191.08C1575.45 193.16 1569.85 196.04 1565.21 199.72L1551.77 173.56C1558.81 168.6 1567.29 164.76 1577.21 162.04C1587.13 159.32 1597.21 157.96 1607.45 157.96C1627.13 157.96 1642.41 162.6 1653.29 171.88C1664.17 181.16 1669.61 195.64 1669.61 215.32V289H1634.57ZM1595.21 290.92C1585.13 290.92 1576.49 289.24 1569.29 285.88C1562.09 282.36 1556.57 277.64 1552.73 271.72C1548.89 265.8 1546.97 259.16 1546.97 251.8C1546.97 244.12 1548.81 237.4 1552.49 231.64C1556.33 225.88 1562.33 221.4 1570.49 218.2C1578.65 214.84 1589.29 213.16 1602.41 213.16H1636.73V235H1606.49C1597.69 235 1591.61 236.44 1588.25 239.32C1585.05 242.2 1583.45 245.8 1583.45 250.12C1583.45 254.92 1585.29 258.76 1588.97 261.64C1592.81 264.36 1598.01 265.72 1604.57 265.72C1610.81 265.72 1616.41 264.28 1621.37 261.4C1626.33 258.36 1629.93 253.96 1632.17 248.2L1637.93 265.48C1635.21 273.8 1630.25 280.12 1623.05 284.44C1615.85 288.76 1606.57 290.92 1595.21 290.92ZM1701.1 289V159.88H1736.86V196.36L1731.82 185.8C1735.66 176.68 1741.82 169.8 1750.3 165.16C1758.78 160.36 1769.1 157.96 1781.26 157.96V192.52C1779.66 192.36 1778.22 192.28 1776.94 192.28C1775.66 192.12 1774.3 192.04 1772.86 192.04C1762.62 192.04 1754.3 195 1747.9 200.92C1741.66 206.68 1738.54 215.72 1738.54 228.04V289H1701.1Z" fill="black"/>
</svg>
